{"title":"Mission Impossible 4(2011)MPEG-4[DaScubaDude]","uid":14710576,"size":1453368068,"categoryP":"video","categoryS":"movies","magnet":"?xt=urn:btih:fce755b66d6f20dc0b5d8cc5e7c524dd2aa6bd1d&amp;dn=Mission+Impossible+4%282011%29MPEG-4%5BDaScubaDude%5D&amp;tr=udp%3A%2F%2Ftracker.leechers-paradise.org%3A6969&amp;tr=udp%3A%2F%2Fzer0day.ch%3A1337&amp;tr=udp%3A%2F%2Fopen.demonii.com%3A1337&amp;tr=udp%3A%2F%2Ftracker.coppersurfer.tk%3A6969&amp;tr=udp%3A%2F%2Fexodus.desync.com%3A6969","seeders":1,"leechers":0,"uploader":"dascuba","files":1,"time":1464417294,"description":"Mission: Impossible - Ghost Protocol (2011)\r\nPG-13 | 2h 13min | Action, Adventure, Thriller | 21 December 2011 (USA)\r\nThe IMF is shut down when it's implicated in the bombing of the Kremlin, causing Ethan Hunt and his new team to go rogue to clear their organization's name.\r\nDirector: Brad Bird\r\nWriters: Bruce Geller (television series &quot;Mission: Impossible&quot;), Josh Appelbaum |\r\nStars: Tom Cruise, Jeremy Renner, Simon Pegg \r\n\r\nGeneral\r\nComplete name                            : MI-4MISSION_IMPOSSIBLE_4_Title50.mp4\r\nFormat                                   : MPEG-4\r\nFormat profile                           : Base Media\r\nCodec ID                                 : isom (isom/iso2/avc1/mp41)\r\nFile size                                : 1.35 GiB\r\nDuration                                 : 2h 12mn\r\nOverall bit rate                         : 1 459 Kbps\r\nMovie name                               : MISSION_IMPOSSIBLE_4\r\nGenre                                    : Action\r\nWriting application                      : Lavf54.6.100\r\n\r\nVideo\r\nID                                       : 1\r\nFormat                                   : AVC\r\nFormat/Info                              : Advanced Video Codec\r\nFormat profile                           :   \r\nFormat settings, CABAC                   : No\r\nFormat settings, ReFrames                : 6 frames\r\nCodec ID                                 : avc1\r\nCodec ID/Info                            : Advanced Video Coding\r\nDuration                                 : 2h 12mn\r\nBit rate                                 : 1 195 Kbps\r\nWidth                                    : 720 pixels\r\nHeight                                   : 404 pixels\r\nDisplay aspect ratio                     : 16:9\r\nFrame rate mode                          : Constant\r\nFrame rate                               : 29.970 (30000/1001) fps\r\nColor space                              : YUV\r\nChroma subsampling                       : 4:2:0\r\nBit depth                                : 8 bits\r\nScan type                                : Progressive\r\nBits/(Pixel*Frame)                       : 0.137\r\nStream size                              : 1.11 GiB (82%)\r\n\r\nAudio\r\nID                                       : 2\r\nFormat                                   : AAC\r\nFormat/Info                              : Advanced Audio Codec\r\nFormat profile                           : LC\r\nCodec ID                                 : 40\r\nDuration                                 : 2h 12mn\r\nBit rate mode                            : Constant\r\nBit rate                                 : 257 Kbps\r\nChannel(s)                               : 2 channels\r\nChannel(s)_Original                      : 6 channels\r\nChannel positions                        : Front: L C R, Side: L R, LFE\r\nSampling rate                            : 44.1 KHz\r\nFrame rate                               : 43.066 fps (1024 spf)\r\nCompression mode                         : Lossy\r\nStream size                              : 244 MiB (18%)\r\nDefault                                  : Yes\r\nAlternate group                          : 1","torrent":{"xt":"urn:btih:fce755b66d6f20dc0b5d8cc5e7c524dd2aa6bd1d","amp;dn":"Mission+Impossible+4%282011%29MPEG-4%5BDaScubaDude%5D","amp;tr":["udp%3A%2F%2Ftracker.leechers-paradise.org%3A6969","udp%3A%2F%2Fzer0day.ch%3A1337","udp%3A%2F%2Fopen.demonii.com%3A1337","udp%3A%2F%2Ftracker.coppersurfer.tk%3A6969","udp%3A%2F%2Fexodus.desync.com%3A6969"],"infoHash":"fce755b66d6f20dc0b5d8cc5e7c524dd2aa6bd1d","infoHashBuffer":{"type":"Buffer","data":[252,231,85,182,109,111,32,220,11,93,140,197,231,197,36,221,42,166,189,29]},"announce":[],"urlList":[]}}